<svg version="1.0" xmlns="http://www.w3.org/2000/svg"
 width="808.000000pt" height="910.000000pt" viewBox="0 0 808.000000 910.000000"
 preserveAspectRatio="xMidYMid meet">

<g transform="translate(0.000000,910.000000) scale(0.100000,-0.100000)"
fill="#000000" stroke="none">
<path d="M584 8593 c18 -32 161 -278 316 -548 156 -269 287 -493 292 -496 5
-3 9 -10 9 -15 -1 -14 185 -334 191 -329 2 3 5 -1 5 -8 0 -24 735 -1287 746
-1280 6 3 7 1 3 -6 -9 -15 444 -802 457 -794 6 3 7 1 3 -5 -3 -6 67 -138 156
-293 90 -156 162 -287 160 -293 -2 -5 -534 -930 -1183 -2054 -649 -1123 -1183
-2050 -1186 -2058 -4 -12 303 -14 2378 -12 l2383 3 782 1355 c430 745 780
1358 777 1362 -2 5 0 8 5 8 10 0 232 380 232 398 0 6 4 12 8 14 5 1 136 223
291 492 228 395 280 491 269 501 -10 9 -3695 2139 -3840 2219 -20 12 -765 441
-1655 955 -890 514 -1621 936 -1626 938 -4 2 8 -22 27 -54z"/>
</g>
</svg>
